# xmcd
#
# Track frame offsets: 
#        150
#        11529
#        37777
#        52991
#        86631
#
# Disc length: 1648 seconds
#
# Revision: 0
# Processed by: cddbd v1.5.2PL0 Copyright (c) Steve Scherf et al.
# Submitted via: ExactAudioCopy v0.95a4
#
DISCID=2c066e05
DTITLE=Dragondeer - Don't That Feel Good
DYEAR=2014
DGENRE=Rock
TTITLE0=Don't That Feel Good
TTITLE1=Messin With The Kid
TTITLE2=Castaway
TTITLE3=Deep Elem Blues
TTITLE4=Don't Go Down The Tracks
EXTD=
EXTT0=
EXTT1=
EXTT2=
EXTT3=
EXTT4=
PLAYORDER=
